<svg version="1.1" id="Layer_1" xmlns="http://www.w3.org/2000/svg" xmlns:xlink="http://www.w3.org/1999/xlink" x="0px" y="0px"
	 width="100%" viewBox="0 0 1200 500" enable-background="new 0 0 1200 500" xml:space="preserve">
<path fill="#FFFFFF" opacity="1.000000" stroke="none" 
	d="
M757.000000,501.000000 
	C504.666687,501.000000 252.833389,501.000000 1.000068,501.000000 
	C1.000045,334.333374 1.000045,167.666763 1.000023,1.000112 
	C400.999908,1.000075 800.999817,1.000075 1200.999756,1.000037 
	C1200.999878,167.666550 1200.999878,334.333099 1201.000000,500.999817 
	C1053.166626,501.000000 905.333313,501.000000 757.000000,501.000000 
M455.541595,319.072632 
	C445.711365,294.167419 435.941132,269.238159 425.981171,244.384964 
	C424.610657,240.965103 424.904663,239.354187 428.401459,237.460617 
	C433.179138,234.873459 437.859863,231.728424 441.761780,227.970688 
	C456.146759,214.117188 460.051849,196.365616 459.209625,177.238708 
	C458.377106,158.332169 452.108887,141.737610 437.038116,129.376724 
	C422.555603,117.498283 405.334534,113.370934 387.187134,113.242760 
	C343.690643,112.935539 300.190369,113.186989 256.692047,113.065773 
	C252.949860,113.055351 251.872177,114.141991 251.877747,117.865105 
	C251.976379,183.862930 251.970825,249.860977 251.887634,315.858826 
	C251.883331,319.277985 252.773499,320.468842 256.366364,320.434662 
	C274.364197,320.263458 292.366577,320.210907 310.362457,320.464691 
	C314.610138,320.524567 315.261902,318.965912 315.235992,315.260468 
	C315.089264,294.262115 315.165009,273.262238 315.165009,252.262878 
	C315.165009,250.514221 315.165039,248.765564 315.165039,246.548325 
	C329.224152,246.548325 342.523193,246.420959 355.811371,246.743576 
	C357.153656,246.776154 359.022491,249.312668 359.647003,251.047211 
	C367.475494,272.790192 375.195312,294.573517 382.725616,316.421387 
	C383.803162,319.547760 385.312683,320.441589 388.451569,320.419067 
	C406.450073,320.289734 424.450104,320.385681 442.449402,320.333282 
	C446.755737,320.320740 451.061279,320.034454 455.541595,319.072632 
M1098.500000,113.142952 
	C1056.717407,113.142952 1014.934753,113.142952 972.790649,113.142952 
	C972.790649,182.305206 972.790649,251.015762 972.790649,319.941833 
	C1031.220459,319.941833 1089.532227,319.941833 1147.659302,319.941833 
	C1147.659302,302.062653 1147.659302,284.671875 1147.659302,266.892151 
	C1111.442627,266.892151 1075.683350,266.892151 1039.728271,266.892151 
	C1039.728271,258.958771 1039.728271,251.429535 1039.728271,243.543137 
	C1041.732788,243.543137 1043.370239,243.543167 1045.007690,243.543137 
	C1077.663818,243.542679 1110.320190,243.496063 1142.975952,243.605453 
	C1146.681763,243.617874 1148.287720,242.868866 1148.215820,238.676208 
	C1147.964233,224.018585 1148.130493,209.353973 1148.098145,194.692108 
	C1148.095093,193.277161 1147.815552,191.862823 1147.626465,190.094147 
	C1111.385010,190.094147 1075.623779,190.094147 1039.732544,190.094147 
	C1039.732544,182.152939 1039.732544,174.629715 1039.732544,166.813385 
	C1041.937012,166.813385 1043.755127,166.813385 1045.573242,166.813370 
	C1078.062744,166.813065 1110.552612,166.752350 1143.041504,166.892868 
	C1146.883545,166.909500 1148.272949,166.013550 1148.208740,161.932373 
	C1147.978271,147.274048 1147.964478,132.607254 1148.216675,117.949638 
	C1148.288818,113.752220 1146.747192,113.010780 1142.984863,113.061928 
	C1128.492188,113.258949 1113.995361,113.142548 1098.500000,113.142952 
M682.499939,251.663925 
	C693.986450,251.511185 705.538513,252.085739 716.946289,251.058655 
	C742.995850,248.713364 763.455688,237.229370 773.697815,211.994858 
	C780.886230,194.284164 780.979431,175.891129 775.376343,157.676224 
	C769.817932,139.606674 758.074646,126.923141 740.564209,119.596558 
	C729.636780,115.024384 718.189697,113.204277 706.463379,113.178131 
	C665.981262,113.087860 625.498901,113.143593 585.016602,113.143745 
	C583.396790,113.143753 581.776978,113.143753 579.829590,113.143753 
	C579.829590,182.377731 579.829590,251.093933 579.829590,320.014221 
	C602.451294,320.014221 624.848389,320.014221 647.918518,320.014221 
	C647.918518,297.146393 647.918518,274.612793 647.918518,251.663742 
	C659.558350,251.663742 670.529114,251.663742 682.499939,251.663925 
M46.126347,158.380600 
	C46.171478,168.486038 45.572826,166.739243 54.757854,166.791733 
	C69.752396,166.877396 84.747795,166.814651 99.742828,166.814514 
	C101.507881,166.814499 103.272926,166.814514 105.655518,166.814514 
	C105.655518,218.406036 105.655518,269.269012 105.655518,319.986450 
	C128.655563,319.986450 151.029007,319.986450 173.802872,319.986450 
	C173.802872,268.778900 173.802872,218.028656 173.802872,166.814911 
	C175.827545,166.814911 177.450592,166.814911 179.073639,166.814911 
	C195.068344,166.814865 211.066925,166.618347 227.055389,166.934280 
	C231.863068,167.029297 232.862045,165.436859 232.767136,160.981766 
	C232.486847,147.825424 232.666931,134.659286 232.666901,121.496979 
	C232.666885,118.879356 232.666901,116.261734 232.666901,113.451691 
	C231.317688,113.309372 230.527466,113.153206 229.737213,113.153046 
	C169.923691,113.140892 110.110115,113.167557 50.296741,113.071121 
	C46.883770,113.065613 46.050812,114.290924 46.078072,117.425499 
	C46.193966,130.753418 46.126755,144.082916 46.126347,158.380600 
M853.493164,113.146233 
	C837.661255,113.146172 821.826599,113.312523 805.999268,113.042763 
	C801.361145,112.963707 799.769592,114.028351 799.782349,119.001633 
	C799.950134,184.328735 799.943115,249.656540 799.787598,314.983704 
	C799.776794,319.522400 801.135620,320.462372 805.423645,320.448395 
	C851.919006,320.296814 898.415100,320.355896 944.910950,320.344421 
	C946.520996,320.344025 948.131104,320.206573 949.726807,320.133667 
	C949.726807,302.239227 949.726807,284.712860 949.726807,266.735168 
	C922.357666,266.735168 895.443970,266.735168 868.186707,266.735168 
	C868.186707,264.642029 868.186768,263.005035 868.186768,261.368042 
	C868.186768,216.538696 868.209656,171.709305 868.150940,126.880035 
	C868.145142,122.461258 869.206970,116.638817 866.889160,114.052139 
	C864.898254,111.830307 858.781250,113.305756 853.493164,113.146233 
M549.971924,204.500000 
	C549.971924,174.112457 549.971924,143.724915 549.971924,113.437340 
	C526.887390,113.437340 504.627472,113.437340 482.341064,113.437340 
	C482.341064,182.530457 482.341064,251.349884 482.341064,320.096069 
	C505.014069,320.096069 527.271851,320.096069 549.971924,320.096069 
	C549.971924,281.717896 549.971924,243.608948 549.971924,204.500000 
z"/>
<path fill="#4E2F8C" opacity="1.000000" stroke="none" 
	d="
M455.454407,319.473328 
	C451.061279,320.034454 446.755737,320.320740 442.449402,320.333282 
	C424.450104,320.385681 406.450073,320.289734 388.451569,320.419067 
	C385.312683,320.441589 383.803162,319.547760 382.725616,316.421387 
	C375.195312,294.573517 367.475494,272.790192 359.647003,251.047211 
	C359.022491,249.312668 357.153656,246.776154 355.811371,246.743576 
	C342.523193,246.420959 329.224152,246.548325 315.165039,246.548325 
	C315.165039,248.765564 315.165009,250.514221 315.165009,252.262878 
	C315.165009,273.262238 315.089264,294.262115 315.235992,315.260468 
	C315.261902,318.965912 314.610138,320.524567 310.362457,320.464691 
	C292.366577,320.210907 274.364197,320.263458 256.366364,320.434662 
	C252.773499,320.468842 251.883331,319.277985 251.887634,315.858826 
	C251.970825,249.860977 251.976379,183.862930 251.877747,117.865105 
	C251.872177,114.141991 252.949860,113.055351 256.692047,113.065773 
	C300.190369,113.186989 343.690643,112.935539 387.187134,113.242760 
	C405.334534,113.370934 422.555603,117.498283 437.038116,129.376724 
	C452.108887,141.737610 458.377106,158.332169 459.209625,177.238708 
	C460.051849,196.365616 456.146759,214.117188 441.761780,227.970688 
	C437.859863,231.728424 433.179138,234.873459 428.401459,237.460617 
	C424.904663,239.354187 424.610657,240.965103 425.981171,244.384964 
	C435.941132,269.238159 445.711365,294.167419 455.454407,319.473328 
M315.160126,175.552811 
	C315.159149,182.716156 315.302216,189.883774 315.090454,197.040894 
	C314.998169,200.159851 316.095673,201.106537 319.092499,201.070175 
	C329.086395,200.948853 339.084473,201.143616 349.077515,200.991074 
	C358.385681,200.848999 367.710663,200.702911 376.987518,200.011993 
	C382.989838,199.564957 387.629303,196.430481 389.854584,190.453903 
	C394.498596,177.981171 387.456299,167.127701 374.057281,166.912079 
	C355.237579,166.609222 336.409607,166.815369 317.585205,166.835236 
	C316.825592,166.836044 316.066345,167.158340 315.160187,167.364182 
	C315.160187,169.944611 315.160187,172.258743 315.160126,175.552811 
z"/>
<path fill="#4E2F8D" opacity="1.000000" stroke="none" 
	d="
M1099.000000,113.142975 
	C1113.995361,113.142548 1128.492188,113.258949 1142.984863,113.061928 
	C1146.747192,113.010780 1148.288818,113.752220 1148.216675,117.949638 
	C1147.964478,132.607254 1147.978271,147.274048 1148.208740,161.932373 
	C1148.272949,166.013550 1146.883545,166.909500 1143.041504,166.892868 
	C1110.552612,166.752350 1078.062744,166.813065 1045.573242,166.813370 
	C1043.755127,166.813385 1041.937012,166.813385 1039.732544,166.813385 
	C1039.732544,174.629715 1039.732544,182.152939 1039.732544,190.094147 
	C1075.623779,190.094147 1111.385010,190.094147 1147.626465,190.094147 
	C1147.815552,191.862823 1148.095093,193.277161 1148.098145,194.692108 
	C1148.130493,209.353973 1147.964233,224.018585 1148.215820,238.676208 
	C1148.287720,242.868866 1146.681763,243.617874 1142.975952,243.605453 
	C1110.320190,243.496063 1077.663818,243.542679 1045.007690,243.543137 
	C1043.370239,243.543167 1041.732788,243.543137 1039.728271,243.543137 
	C1039.728271,251.429535 1039.728271,258.958771 1039.728271,266.892151 
	C1075.683350,266.892151 1111.442627,266.892151 1147.659302,266.892151 
	C1147.659302,284.671875 1147.659302,302.062653 1147.659302,319.941833 
	C1089.532227,319.941833 1031.220459,319.941833 972.790649,319.941833 
	C972.790649,251.015762 972.790649,182.305206 972.790649,113.142952 
	C1014.934753,113.142952 1056.717407,113.142952 1099.000000,113.142975 
z"/>
<path fill="#4E2F8D" opacity="1.000000" stroke="none" 
	d="
M681.999878,251.663834 
	C670.529114,251.663742 659.558350,251.663742 647.918518,251.663742 
	C647.918518,274.612793 647.918518,297.146393 647.918518,320.014221 
	C624.848389,320.014221 602.451294,320.014221 579.829590,320.014221 
	C579.829590,251.093933 579.829590,182.377731 579.829590,113.143753 
	C581.776978,113.143753 583.396790,113.143753 585.016602,113.143745 
	C625.498901,113.143593 665.981262,113.087860 706.463379,113.178131 
	C718.189697,113.204277 729.636780,115.024384 740.564209,119.596558 
	C758.074646,126.923141 769.817932,139.606674 775.376343,157.676224 
	C780.979431,175.891129 780.886230,194.284164 773.697815,211.994858 
	C763.455688,237.229370 742.995850,248.713364 716.946289,251.058655 
	C705.538513,252.085739 693.986450,251.511185 681.999878,251.663834 
M687.481079,166.811249 
	C674.392273,166.811249 661.303406,166.811249 648.215027,166.811249 
	C648.215027,177.603195 648.215027,187.803055 648.215027,198.214493 
	C664.409668,198.214493 680.213074,198.513382 695.998169,198.103348 
	C705.600220,197.853928 710.770569,191.278122 710.351135,181.368942 
	C709.955933,172.032181 704.632446,166.989990 694.962219,166.819672 
	C692.799194,166.781540 690.635010,166.812195 687.481079,166.811249 
z"/>
<path fill="#4F308D" opacity="1.000000" stroke="none" 
	d="
M46.126373,157.896210 
	C46.126755,144.082916 46.193966,130.753418 46.078072,117.425499 
	C46.050812,114.290924 46.883770,113.065613 50.296741,113.071121 
	C110.110115,113.167557 169.923691,113.140892 229.737213,113.153046 
	C230.527466,113.153206 231.317688,113.309372 232.666901,113.451691 
	C232.666901,116.261734 232.666885,118.879356 232.666901,121.496979 
	C232.666931,134.659286 232.486847,147.825424 232.767136,160.981766 
	C232.862045,165.436859 231.863068,167.029297 227.055389,166.934280 
	C211.066925,166.618347 195.068344,166.814865 179.073639,166.814911 
	C177.450592,166.814911 175.827545,166.814911 173.802872,166.814911 
	C173.802872,218.028656 173.802872,268.778900 173.802872,319.986450 
	C151.029007,319.986450 128.655563,319.986450 105.655518,319.986450 
	C105.655518,269.269012 105.655518,218.406036 105.655518,166.814514 
	C103.272926,166.814514 101.507881,166.814499 99.742828,166.814514 
	C84.747795,166.814651 69.752396,166.877396 54.757854,166.791733 
	C45.572826,166.739243 46.171478,168.486038 46.126373,157.896210 
z"/>
<path fill="#4D2E8C" opacity="1.000000" stroke="none" 
	d="
M853.990967,113.146255 
	C858.781250,113.305756 864.898254,111.830307 866.889160,114.052139 
	C869.206970,116.638817 868.145142,122.461258 868.150940,126.880035 
	C868.209656,171.709305 868.186768,216.538696 868.186768,261.368042 
	C868.186768,263.005035 868.186707,264.642029 868.186707,266.735168 
	C895.443970,266.735168 922.357666,266.735168 949.726807,266.735168 
	C949.726807,284.712860 949.726807,302.239227 949.726807,320.133667 
	C948.131104,320.206573 946.520996,320.344025 944.910950,320.344421 
	C898.415100,320.355896 851.919006,320.296814 805.423645,320.448395 
	C801.135620,320.462372 799.776794,319.522400 799.787598,314.983704 
	C799.943115,249.656540 799.950134,184.328735 799.782349,119.001633 
	C799.769592,114.028351 801.361145,112.963707 805.999268,113.042763 
	C821.826599,113.312523 837.661255,113.146172 853.990967,113.146255 
z"/>
<path fill="#4D2E8C" opacity="1.000000" stroke="none" 
	d="
M549.971924,205.000000 
	C549.971924,243.608948 549.971924,281.717896 549.971924,320.096069 
	C527.271851,320.096069 505.014069,320.096069 482.341064,320.096069 
	C482.341064,251.349884 482.341064,182.530457 482.341064,113.437340 
	C504.627472,113.437340 526.887390,113.437340 549.971924,113.437340 
	C549.971924,143.724915 549.971924,174.112457 549.971924,205.000000 
z"/>
<path fill="#FDFDFE" opacity="1.000000" stroke="none" 
	d="
M315.160156,175.062836 
	C315.160187,172.258743 315.160187,169.944611 315.160187,167.364182 
	C316.066345,167.158340 316.825592,166.836044 317.585205,166.835236 
	C336.409607,166.815369 355.237579,166.609222 374.057281,166.912079 
	C387.456299,167.127701 394.498596,177.981171 389.854584,190.453903 
	C387.629303,196.430481 382.989838,199.564957 376.987518,200.011993 
	C367.710663,200.702911 358.385681,200.848999 349.077515,200.991074 
	C339.084473,201.143616 329.086395,200.948853 319.092499,201.070175 
	C316.095673,201.106537 314.998169,200.159851 315.090454,197.040894 
	C315.302216,189.883774 315.159149,182.716156 315.160156,175.062836 
z"/>
<path fill="#FEFEFF" opacity="1.000000" stroke="none" 
	d="
M687.976196,166.811218 
	C690.635010,166.812195 692.799194,166.781540 694.962219,166.819672 
	C704.632446,166.989990 709.955933,172.032181 710.351135,181.368942 
	C710.770569,191.278122 705.600220,197.853928 695.998169,198.103348 
	C680.213074,198.513382 664.409668,198.214493 648.215027,198.214493 
	C648.215027,187.803055 648.215027,177.603195 648.215027,166.811249 
	C661.303406,166.811249 674.392273,166.811249 687.976196,166.811218 
z"/>
</svg>