<svg version="1.1" id="Layer_1" xmlns="http://www.w3.org/2000/svg" xmlns:xlink="http://www.w3.org/1999/xlink" x="0px" y="0px"
	 width="100%" viewBox="0 0 1914 764" enable-background="new 0 0 1914 764" xml:space="preserve">
<path fill="#FFFFFF" opacity="1.000000" stroke="none" 
	d="
M3.000000,1.000000 
	C640.278381,1.000000 1277.556763,1.000000 1914.917603,1.000000 
	C1914.917603,255.589752 1914.917603,510.179565 1914.917603,765.000000 
	C1277.965088,765.000000 640.930176,765.000000 3.447453,764.542053 
	C2.999761,509.722748 2.999880,255.361374 3.000000,1.000000 
M536.910522,499.607269 
	C557.823975,581.132629 578.737488,662.658020 599.595154,743.965698 
	C634.470093,743.965698 668.744568,743.965698 703.448120,743.965698 
	C677.259277,651.820068 651.168335,560.018677 625.050049,468.121246 
	C627.771362,466.617523 630.219788,465.237762 632.692444,463.902985 
	C643.997131,457.800537 653.420654,449.462494 661.396301,439.478302 
	C676.463013,420.617218 684.625000,398.553589 687.749634,375.119965 
	C690.800659,352.238647 692.431152,329.028992 692.676636,305.942078 
	C693.158508,260.631104 692.582703,215.299240 691.767578,169.988205 
	C691.359985,147.331177 688.312500,124.921806 681.117249,103.206734 
	C669.669556,68.658340 647.158630,45.108242 612.642334,33.246220 
	C593.609558,26.705324 573.946655,23.063005 553.892822,22.861122 
	C500.736267,22.325994 447.574066,22.347097 394.414032,22.172260 
	C393.982025,22.170839 393.548798,22.520416 393.300781,22.626865 
	C393.300781,263.227814 393.300781,503.648254 393.300781,743.951172 
	C426.029663,743.951172 458.457153,743.951172 491.314453,743.951172 
	C491.314453,657.288269 491.314453,570.889465 491.314453,484.354401 
	C505.374756,484.354401 519.003540,484.354401 532.877075,484.354401 
	C534.156860,489.187653 535.430725,493.998596 536.910522,499.607269 
M1218.175903,442.672455 
	C1222.749878,434.774841 1228.060425,427.205811 1231.758667,418.917419 
	C1242.426025,395.009247 1246.419922,369.483490 1246.827515,343.576965 
	C1247.619019,293.270233 1247.931519,242.949051 1247.746216,192.636414 
	C1247.637085,162.997498 1246.098145,133.373276 1236.822266,104.800568 
	C1225.652588,70.394920 1203.955322,46.085644 1169.372559,33.816589 
	C1143.234253,24.543379 1116.149292,22.227213 1088.746460,22.151558 
	C1043.418457,22.026413 998.089905,22.117250 952.761597,22.117083 
	C951.316956,22.117077 949.872314,22.117081 948.339355,22.117081 
	C948.339355,262.997986 948.339355,503.394318 948.339355,743.951477 
	C981.121033,743.951477 1013.679749,743.951477 1046.785400,743.951477 
	C1046.785400,658.823364 1046.785400,573.960388 1046.785400,488.882446 
	C1060.813354,488.882446 1074.295654,488.977325 1087.776001,488.860992 
	C1109.952637,488.669617 1132.019897,487.404938 1153.652466,481.908600 
	C1178.939331,475.483795 1201.307495,464.281311 1218.175903,442.672455 
M1728.500000,22.117138 
	C1696.418701,22.117138 1664.337524,22.117138 1632.403076,22.117138 
	C1632.403076,263.172394 1632.403076,503.568390 1632.403076,743.870911 
	C1718.570557,743.870911 1804.451538,743.870911 1890.402832,743.870911 
	C1890.402832,715.084595 1890.402832,686.646118 1890.402832,657.634277 
	C1837.143799,657.634277 1784.108887,657.634277 1731.137573,657.634277 
	C1731.137573,578.810791 1731.137573,500.561676 1731.137573,421.956848 
	C1781.312866,421.956848 1831.235229,421.956848 1881.289185,421.956848 
	C1881.289185,392.896851 1881.289185,364.194427 1881.289185,335.155579 
	C1831.035645,335.155579 1781.122437,335.155579 1731.166504,335.155579 
	C1731.166504,259.593750 1731.166504,184.370285 1731.166504,108.790146 
	C1784.366577,108.790146 1837.284302,108.790146 1890.295410,108.790146 
	C1890.295410,79.718109 1890.295410,51.004551 1890.295410,22.117138 
	C1836.473877,22.117138 1782.986938,22.117138 1728.500000,22.117138 
M53.500034,22.117117 
	C44.045532,22.117117 34.591026,22.117117 24.964603,22.117117 
	C24.964603,51.203682 24.964603,79.798225 24.964603,108.992310 
	C59.846554,108.992310 94.551201,108.992310 129.570923,108.992310 
	C129.570923,321.031830 129.570923,532.471924 129.570923,743.980347 
	C162.147156,743.980347 194.399734,743.980347 227.113983,743.980347 
	C227.113983,532.191162 227.113983,320.639313 227.113983,108.647476 
	C261.970551,108.647476 296.366394,108.647476 330.632202,108.647476 
	C330.632202,79.609428 330.632202,51.012791 330.632202,22.117119 
	C238.421188,22.117119 146.460617,22.117119 53.500034,22.117117 
M1314.592041,744.217529 
	C1399.657837,744.217529 1484.723511,744.217529 1569.655273,744.217529 
	C1569.655273,715.000061 1569.655273,686.436829 1569.655273,657.581665 
	C1516.188599,657.581665 1463.067139,657.581665 1409.566772,657.581665 
	C1409.566772,445.705353 1409.566772,234.124374 1409.566772,22.330807 
	C1376.612183,22.330807 1344.038086,22.330807 1310.999146,22.330807 
	C1310.999146,24.465704 1310.999146,26.417921 1310.999146,28.370136 
	C1310.999146,265.011566 1310.999023,501.653015 1311.000122,738.294434 
	C1311.000122,739.794128 1310.748047,741.368652 1311.138916,742.760803 
	C1311.325317,743.424927 1312.746582,743.742310 1314.592041,744.217529 
M865.053528,483.500000 
	C865.053528,329.759888 865.053528,176.019760 865.053528,22.292936 
	C831.956421,22.292936 799.518616,22.292936 767.040710,22.292936 
	C767.040710,263.040375 767.040710,503.564636 767.040710,744.083252 
	C799.807556,744.083252 832.232727,744.083252 865.053528,744.083252 
	C865.053528,657.411072 865.053528,570.955505 865.053528,483.500000 
z"/>
<path fill="#DEDFE5" opacity="1.000000" stroke="none" 
	d="
M2.500000,1.000000 
	C2.999880,255.361374 2.999761,509.722748 2.999825,764.542053 
	C2.333344,764.667297 1.216287,764.453308 1.090988,763.977966 
	C0.803629,762.887817 1.000000,761.670105 1.000000,760.504211 
	C1.000000,508.834900 0.998267,257.165588 1.041278,5.496298 
	C1.041534,3.997477 1.666667,2.498764 2.500000,1.000000 
z"/>
<path fill="#000000" opacity="1.000000" stroke="none" 
	d="
M536.807617,499.208374 
	C535.430725,493.998596 534.156860,489.187653 532.877075,484.354401 
	C519.003540,484.354401 505.374756,484.354401 491.314453,484.354401 
	C491.314453,570.889465 491.314453,657.288269 491.314453,743.951172 
	C458.457153,743.951172 426.029663,743.951172 393.300781,743.951172 
	C393.300781,503.648254 393.300781,263.227814 393.300781,22.626865 
	C393.548798,22.520416 393.982025,22.170839 394.414032,22.172260 
	C447.574066,22.347097 500.736267,22.325994 553.892822,22.861122 
	C573.946655,23.063005 593.609558,26.705324 612.642334,33.246220 
	C647.158630,45.108242 669.669556,68.658340 681.117249,103.206734 
	C688.312500,124.921806 691.359985,147.331177 691.767578,169.988205 
	C692.582703,215.299240 693.158508,260.631104 692.676636,305.942078 
	C692.431152,329.028992 690.800659,352.238647 687.749634,375.119965 
	C684.625000,398.553589 676.463013,420.617218 661.396301,439.478302 
	C653.420654,449.462494 643.997131,457.800537 632.692444,463.902985 
	C630.219788,465.237762 627.771362,466.617523 625.050049,468.121246 
	C651.168335,560.018677 677.259277,651.820068 703.448120,743.965698 
	C668.744568,743.965698 634.470093,743.965698 599.595154,743.965698 
	C578.737488,662.658020 557.823975,581.132629 536.807617,499.208374 
M491.214081,293.499878 
	C491.214081,328.236908 491.214081,362.973938 491.214081,397.785889 
	C505.270081,397.785889 518.609070,398.089447 531.925354,397.671631 
	C539.866272,397.422485 547.898193,396.651001 555.665833,395.038361 
	C570.684692,391.920349 582.609192,383.800659 588.184448,369.166077 
	C591.379883,360.778503 593.493469,351.558746 593.913391,342.611298 
	C595.264343,313.829285 596.347290,284.994202 596.136108,256.189850 
	C595.886963,222.228592 594.696045,188.250992 592.921021,154.332428 
	C591.751953,131.992950 575.819824,113.752380 553.977112,111.235611 
	C533.571289,108.884399 512.808167,109.632751 492.201477,109.044609 
	C491.957306,109.037643 491.702576,109.400185 491.214081,109.771835 
	C491.214081,170.567566 491.214081,231.533691 491.214081,293.499878 
z"/>
<path fill="#010101" opacity="1.000000" stroke="none" 
	d="
M1217.979370,442.968933 
	C1201.307495,464.281311 1178.939331,475.483795 1153.652466,481.908600 
	C1132.019897,487.404938 1109.952637,488.669617 1087.776001,488.860992 
	C1074.295654,488.977325 1060.813354,488.882446 1046.785400,488.882446 
	C1046.785400,573.960388 1046.785400,658.823364 1046.785400,743.951477 
	C1013.679749,743.951477 981.121033,743.951477 948.339355,743.951477 
	C948.339355,503.394318 948.339355,262.997986 948.339355,22.117081 
	C949.872314,22.117081 951.316956,22.117077 952.761597,22.117083 
	C998.089905,22.117250 1043.418457,22.026413 1088.746460,22.151558 
	C1116.149292,22.227213 1143.234253,24.543379 1169.372559,33.816589 
	C1203.955322,46.085644 1225.652588,70.394920 1236.822266,104.800568 
	C1246.098145,133.373276 1247.637085,162.997498 1247.746216,192.636414 
	C1247.931519,242.949051 1247.619019,293.270233 1246.827515,343.576965 
	C1246.419922,369.483490 1242.426025,395.009247 1231.758667,418.917419 
	C1228.060425,427.205811 1222.749878,434.774841 1217.979370,442.968933 
M1070.500000,108.882904 
	C1062.576172,108.882904 1054.652222,108.882904 1046.920166,108.882904 
	C1046.920166,206.994156 1046.920166,304.401733 1046.920166,402.613586 
	C1066.006104,402.092773 1084.860962,402.441101 1103.546997,400.830597 
	C1123.029785,399.151398 1138.197266,389.333344 1144.597656,370.149323 
	C1147.856079,360.383362 1149.490356,349.643219 1149.578491,339.323975 
	C1150.054199,283.679108 1149.983154,228.027145 1149.654907,172.380264 
	C1149.600586,163.168320 1148.167114,153.763947 1145.933472,144.806976 
	C1141.198975,125.820946 1128.335083,114.273819 1109.296753,111.148613 
	C1096.907715,109.114906 1084.113037,109.552475 1070.500000,108.882904 
z"/>
<path fill="#010101" opacity="1.000000" stroke="none" 
	d="
M1729.000000,22.117138 
	C1782.986938,22.117138 1836.473877,22.117138 1890.295410,22.117138 
	C1890.295410,51.004551 1890.295410,79.718109 1890.295410,108.790146 
	C1837.284302,108.790146 1784.366577,108.790146 1731.166504,108.790146 
	C1731.166504,184.370285 1731.166504,259.593750 1731.166504,335.155579 
	C1781.122437,335.155579 1831.035645,335.155579 1881.289185,335.155579 
	C1881.289185,364.194427 1881.289185,392.896851 1881.289185,421.956848 
	C1831.235229,421.956848 1781.312866,421.956848 1731.137573,421.956848 
	C1731.137573,500.561676 1731.137573,578.810791 1731.137573,657.634277 
	C1784.108887,657.634277 1837.143799,657.634277 1890.402832,657.634277 
	C1890.402832,686.646118 1890.402832,715.084595 1890.402832,743.870911 
	C1804.451538,743.870911 1718.570557,743.870911 1632.403076,743.870911 
	C1632.403076,503.568390 1632.403076,263.172394 1632.403076,22.117138 
	C1664.337524,22.117138 1696.418701,22.117138 1729.000000,22.117138 
z"/>
<path fill="#010101" opacity="1.000000" stroke="none" 
	d="
M54.000038,22.117119 
	C146.460617,22.117119 238.421188,22.117119 330.632202,22.117119 
	C330.632202,51.012791 330.632202,79.609428 330.632202,108.647476 
	C296.366394,108.647476 261.970551,108.647476 227.113983,108.647476 
	C227.113983,320.639313 227.113983,532.191162 227.113983,743.980347 
	C194.399734,743.980347 162.147156,743.980347 129.570923,743.980347 
	C129.570923,532.471924 129.570923,321.031830 129.570923,108.992310 
	C94.551201,108.992310 59.846554,108.992310 24.964603,108.992310 
	C24.964603,79.798225 24.964603,51.203682 24.964603,22.117117 
	C34.591026,22.117117 44.045532,22.117117 54.000038,22.117119 
z"/>
<path fill="#010101" opacity="1.000000" stroke="none" 
	d="
M1314.100342,744.217163 
	C1312.746582,743.742310 1311.325317,743.424927 1311.138916,742.760803 
	C1310.748047,741.368652 1311.000122,739.794128 1311.000122,738.294434 
	C1310.999023,501.653015 1310.999146,265.011566 1310.999146,28.370136 
	C1310.999146,26.417921 1310.999146,24.465704 1310.999146,22.330807 
	C1344.038086,22.330807 1376.612183,22.330807 1409.566772,22.330807 
	C1409.566772,234.124374 1409.566772,445.705353 1409.566772,657.581665 
	C1463.067139,657.581665 1516.188599,657.581665 1569.655273,657.581665 
	C1569.655273,686.436829 1569.655273,715.000061 1569.655273,744.217529 
	C1484.723511,744.217529 1399.657837,744.217529 1314.100342,744.217163 
z"/>
<path fill="#000000" opacity="1.000000" stroke="none" 
	d="
M865.053528,484.000000 
	C865.053528,570.955505 865.053528,657.411072 865.053528,744.083252 
	C832.232727,744.083252 799.807556,744.083252 767.040710,744.083252 
	C767.040710,503.564636 767.040710,263.040375 767.040710,22.292936 
	C799.518616,22.292936 831.956421,22.292936 865.053528,22.292936 
	C865.053528,176.019760 865.053528,329.759888 865.053528,484.000000 
z"/>
<path fill="#FEFEFE" opacity="1.000000" stroke="none" 
	d="
M491.214081,292.999847 
	C491.214081,231.533691 491.214081,170.567566 491.214081,109.771835 
	C491.702576,109.400185 491.957306,109.037643 492.201477,109.044609 
	C512.808167,109.632751 533.571289,108.884399 553.977112,111.235611 
	C575.819824,113.752380 591.751953,131.992950 592.921021,154.332428 
	C594.696045,188.250992 595.886963,222.228592 596.136108,256.189850 
	C596.347290,284.994202 595.264343,313.829285 593.913391,342.611298 
	C593.493469,351.558746 591.379883,360.778503 588.184448,369.166077 
	C582.609192,383.800659 570.684692,391.920349 555.665833,395.038361 
	C547.898193,396.651001 539.866272,397.422485 531.925354,397.671631 
	C518.609070,398.089447 505.270081,397.785889 491.214081,397.785889 
	C491.214081,362.973938 491.214081,328.236908 491.214081,292.999847 
z"/>
<path fill="#FFFFFF" opacity="1.000000" stroke="none" 
	d="
M1071.000000,108.882904 
	C1084.113037,109.552475 1096.907715,109.114906 1109.296753,111.148613 
	C1128.335083,114.273819 1141.198975,125.820946 1145.933472,144.806976 
	C1148.167114,153.763947 1149.600586,163.168320 1149.654907,172.380264 
	C1149.983154,228.027145 1150.054199,283.679108 1149.578491,339.323975 
	C1149.490356,349.643219 1147.856079,360.383362 1144.597656,370.149323 
	C1138.197266,389.333344 1123.029785,399.151398 1103.546997,400.830597 
	C1084.860962,402.441101 1066.006104,402.092773 1046.920166,402.613586 
	C1046.920166,304.401733 1046.920166,206.994156 1046.920166,108.882904 
	C1054.652222,108.882904 1062.576172,108.882904 1071.000000,108.882904 
z"/>
</svg>