<svg version="1.1" id="Layer_1" xmlns="http://www.w3.org/2000/svg" xmlns:xlink="http://www.w3.org/1999/xlink" x="0px" y="0px"
	 width="100%" viewBox="0 0 2390 1024" enable-background="new 0 0 2390 1024" xml:space="preserve">
<path fill="#FFFFFF" opacity="1.000000" stroke="none" 
	d="
M1798.000000,1025.000000 
	C1198.666748,1025.000000 599.833496,1025.000000 1.000161,1025.000000 
	C1.000107,683.666809 1.000107,342.333557 1.000054,1.000252 
	C797.666443,1.000168 1594.332886,1.000168 2390.999512,1.000084 
	C2390.999512,342.333099 2390.999512,683.666199 2390.999756,1024.999634 
	C2193.500000,1025.000000 1996.000000,1025.000000 1798.000000,1025.000000 
M742.242188,786.238953 
	C753.909119,831.669189 765.576050,877.099426 777.170044,922.245483 
	C817.829224,922.245483 857.885986,922.245483 898.431580,922.245483 
	C867.819763,814.738281 837.336548,707.682678 806.786804,600.393433 
	C808.437317,599.501831 809.859070,598.695679 811.313660,597.953796 
	C833.859558,586.454346 850.533630,569.192566 862.314575,546.856384 
	C874.816650,523.153015 880.962830,497.639191 882.808411,471.272186 
	C884.924500,441.041931 886.280640,410.702972 886.427917,380.403717 
	C886.637756,337.252594 885.885315,294.082550 884.694824,250.944016 
	C883.935303,223.422119 879.954956,196.298187 870.530762,170.124420 
	C856.165771,130.228531 828.345581,104.782730 788.367249,91.970993 
	C759.474548,82.711830 729.624146,80.563805 699.574646,80.457748 
	C646.909912,80.271881 594.243958,80.405670 541.578552,80.405548 
	C539.828552,80.405540 538.078552,80.405540 536.509521,80.405540 
	C536.509521,361.548553 536.509521,641.942261 536.509521,922.306335 
	C574.817383,922.306335 612.750610,922.306335 651.248901,922.306335 
	C651.248901,821.139526 651.248901,720.259766 651.248901,619.408081 
	C667.606445,619.408081 683.396301,619.408081 699.488647,619.408081 
	C713.708191,674.836060 727.894958,730.136475 742.242188,786.238953 
M1183.404541,515.499878 
	C1183.404541,651.081970 1183.404541,786.664062 1183.404541,922.357300 
	C1221.854370,922.357300 1259.778809,922.357300 1298.231689,922.357300 
	C1298.231689,823.062439 1298.231689,724.004272 1298.231689,624.595764 
	C1300.572754,624.595764 1302.391113,624.609741 1304.209229,624.593628 
	C1325.368164,624.406311 1346.546753,624.717896 1367.681396,623.899353 
	C1395.562988,622.819580 1423.041748,618.971558 1449.039673,607.960083 
	C1473.343628,597.666077 1492.987305,581.971924 1506.432129,558.900085 
	C1522.064087,532.074646 1528.640381,502.569763 1530.682251,472.169281 
	C1532.746094,441.437775 1533.671631,410.579926 1533.722778,379.775146 
	C1533.794922,336.296387 1532.986938,292.805267 1531.813354,249.339417 
	C1531.083618,222.306442 1527.016968,195.699844 1517.767212,170.036362 
	C1503.403809,130.184952 1475.546021,104.730110 1435.570312,91.945854 
	C1406.844727,82.759369 1377.168091,80.567062 1347.290527,80.459045 
	C1294.302246,80.267464 1241.312744,80.404694 1188.323730,80.404358 
	C1186.737061,80.404343 1185.150391,80.404350 1183.404663,80.404350 
	C1183.404663,225.574875 1183.404663,370.037354 1183.404541,515.499878 
M2282.194092,844.500000 
	C2282.194092,836.876770 2282.194092,829.253601 2282.194092,821.010742 
	C2219.880859,821.010742 2158.030029,821.010742 2096.295166,821.010742 
	C2096.295166,729.305298 2096.295166,638.226990 2096.295166,546.637512 
	C2154.967529,546.637512 2213.347656,546.637512 2271.621582,546.637512 
	C2271.621582,512.846619 2271.621582,479.568298 2271.621582,445.713013 
	C2213.005859,445.713013 2154.630615,445.713013 2096.288574,445.713013 
	C2096.288574,357.377686 2096.288574,269.621338 2096.288574,181.438843 
	C2158.336914,181.438843 2220.099121,181.438843 2281.874512,181.438843 
	C2281.874512,147.605057 2281.874512,114.199127 2281.874512,80.731995 
	C2181.492432,80.731995 2081.430664,80.731995 1981.424805,80.731995 
	C1981.424805,361.442169 1981.424805,641.824707 1981.424805,922.269958 
	C2081.770996,922.269958 2181.826416,922.269958 2282.194092,922.269958 
	C2282.194092,896.463684 2282.194092,870.981812 2282.194092,844.500000 
M279.499878,922.595581 
	C300.458618,922.595581 321.417358,922.595581 342.881989,922.595581 
	C342.881989,675.437378 342.881989,428.734924 342.881989,181.509384 
	C383.450623,181.509384 423.514038,181.509384 463.559418,181.509384 
	C463.559418,147.578705 463.559418,114.172783 463.559418,80.632553 
	C344.668121,80.632553 226.082794,80.632553 107.247864,80.632553 
	C107.247864,114.266525 107.247864,147.672836 107.247864,181.595718 
	C147.799026,181.595718 188.194260,181.595718 229.090271,181.595718 
	C229.090271,428.809448 229.090271,675.507568 229.090271,922.595398 
	C245.894974,922.595398 262.197418,922.595398 279.499878,922.595581 
M1606.810669,920.195374 
	C1607.088135,924.310913 1610.293579,922.512085 1612.131348,922.513855 
	C1709.277954,922.607178 1806.424805,922.596436 1903.571533,922.596497 
	C1905.194214,922.596497 1906.816895,922.596436 1908.576172,922.596436 
	C1908.576172,888.540161 1908.576172,854.987915 1908.576172,821.027710 
	C1846.207031,821.027710 1784.126343,821.027710 1721.497803,821.027710 
	C1721.497803,573.956238 1721.497803,327.292908 1721.497803,80.685760 
	C1683.013184,80.685760 1645.079346,80.685760 1606.805786,80.685760 
	C1606.805786,360.394226 1606.805786,639.820679 1606.810669,920.195374 
M972.018433,496.500000 
	C972.018433,638.388611 972.018433,780.277222 972.018433,922.060486 
	C1010.638977,922.060486 1048.556030,922.060486 1086.590576,922.060486 
	C1086.590576,641.413635 1086.590576,361.073547 1086.590576,80.727943 
	C1048.281372,80.727943 1010.254272,80.727943 972.018433,80.727943 
	C972.018433,219.247131 972.018433,357.373566 972.018433,496.500000 
z"/>
<path fill="#3D1C79" opacity="1.000000" stroke="none" 
	d="
M742.161987,785.837891 
	C727.894958,730.136475 713.708191,674.836060 699.488647,619.408081 
	C683.396301,619.408081 667.606445,619.408081 651.248901,619.408081 
	C651.248901,720.259766 651.248901,821.139526 651.248901,922.306335 
	C612.750610,922.306335 574.817383,922.306335 536.509521,922.306335 
	C536.509521,641.942261 536.509521,361.548553 536.509521,80.405540 
	C538.078552,80.405540 539.828552,80.405540 541.578552,80.405548 
	C594.243958,80.405670 646.909912,80.271881 699.574646,80.457748 
	C729.624146,80.563805 759.474548,82.711830 788.367249,91.970993 
	C828.345581,104.782730 856.165771,130.228531 870.530762,170.124420 
	C879.954956,196.298187 883.935303,223.422119 884.694824,250.944016 
	C885.885315,294.082550 886.637756,337.252594 886.427917,380.403717 
	C886.280640,410.702972 884.924500,441.041931 882.808411,471.272186 
	C880.962830,497.639191 874.816650,523.153015 862.314575,546.856384 
	C850.533630,569.192566 833.859558,586.454346 811.313660,597.953796 
	C809.859070,598.695679 808.437317,599.501831 806.786804,600.393433 
	C837.336548,707.682678 867.819763,814.738281 898.431580,922.245483 
	C857.885986,922.245483 817.829224,922.245483 777.170044,922.245483 
	C765.576050,877.099426 753.909119,831.669189 742.161987,785.837891 
M771.549561,440.017120 
	C774.212280,380.712402 774.293762,321.400360 771.561646,262.102631 
	C770.996765,249.842880 769.979553,237.484116 767.674744,225.457703 
	C765.311768,213.127304 758.851685,202.672943 748.648682,194.696487 
	C737.653870,186.101028 724.933472,182.605804 711.457092,182.152954 
	C692.311035,181.509613 673.135681,181.735260 653.972595,181.613068 
	C653.055481,181.607224 652.136963,181.827744 651.374146,181.923401 
	C651.374146,294.221100 651.374146,406.113037 651.374146,518.135986 
	C664.078125,518.135986 676.411438,518.284424 688.739380,518.089294 
	C698.714844,517.931396 708.806030,518.215332 718.632446,516.810486 
	C747.352844,512.704285 763.247620,497.697601 768.971985,469.252655 
	C770.828918,460.025360 770.694763,450.397308 771.549561,440.017120 
z"/>
<path fill="#3D1C7A" opacity="1.000000" stroke="none" 
	d="
M1183.404541,514.999878 
	C1183.404663,370.037354 1183.404663,225.574875 1183.404663,80.404350 
	C1185.150391,80.404350 1186.737061,80.404343 1188.323730,80.404358 
	C1241.312744,80.404694 1294.302246,80.267464 1347.290527,80.459045 
	C1377.168091,80.567062 1406.844727,82.759369 1435.570312,91.945854 
	C1475.546021,104.730110 1503.403809,130.184952 1517.767212,170.036362 
	C1527.016968,195.699844 1531.083618,222.306442 1531.813354,249.339417 
	C1532.986938,292.805267 1533.794922,336.296387 1533.722778,379.775146 
	C1533.671631,410.579926 1532.746094,441.437775 1530.682251,472.169281 
	C1528.640381,502.569763 1522.064087,532.074646 1506.432129,558.900085 
	C1492.987305,581.971924 1473.343628,597.666077 1449.039673,607.960083 
	C1423.041748,618.971558 1395.562988,622.819580 1367.681396,623.899353 
	C1346.546753,624.717896 1325.368164,624.406311 1304.209229,624.593628 
	C1302.391113,624.609741 1300.572754,624.595764 1298.231689,624.595764 
	C1298.231689,724.004272 1298.231689,823.062439 1298.231689,922.357300 
	C1259.778809,922.357300 1221.854370,922.357300 1183.404541,922.357300 
	C1183.404541,786.664062 1183.404541,651.081970 1183.404541,514.999878 
M1420.294312,340.499298 
	C1419.582886,309.193146 1418.993286,277.883575 1418.108154,246.582352 
	C1417.673462,231.203232 1414.538086,216.392944 1405.010498,203.845505 
	C1393.584351,188.797714 1377.302246,182.901657 1359.204102,182.182037 
	C1339.741699,181.408188 1320.235229,181.743057 1300.747803,181.617950 
	C1299.986694,181.613068 1299.224121,181.854614 1298.456299,181.982315 
	C1298.456299,295.891937 1298.456299,409.441833 1298.456299,523.406738 
	C1309.184814,523.406738 1319.657349,523.593872 1330.120117,523.358276 
	C1342.583496,523.077637 1355.168823,523.393738 1367.466797,521.723572 
	C1385.988647,519.207947 1401.041138,510.349304 1410.017700,493.105042 
	C1415.508911,482.556732 1417.787109,471.129669 1418.055420,459.403076 
	C1418.954590,420.105225 1419.574829,380.801025 1420.294312,340.499298 
z"/>
<path fill="#3D1C7A" opacity="1.000000" stroke="none" 
	d="
M2282.194092,845.000000 
	C2282.194092,870.981812 2282.194092,896.463684 2282.194092,922.269958 
	C2181.826416,922.269958 2081.770996,922.269958 1981.424805,922.269958 
	C1981.424805,641.824707 1981.424805,361.442169 1981.424805,80.731995 
	C2081.430664,80.731995 2181.492432,80.731995 2281.874512,80.731995 
	C2281.874512,114.199127 2281.874512,147.605057 2281.874512,181.438843 
	C2220.099121,181.438843 2158.336914,181.438843 2096.288574,181.438843 
	C2096.288574,269.621338 2096.288574,357.377686 2096.288574,445.713013 
	C2154.630615,445.713013 2213.005859,445.713013 2271.621582,445.713013 
	C2271.621582,479.568298 2271.621582,512.846619 2271.621582,546.637512 
	C2213.347656,546.637512 2154.967529,546.637512 2096.295166,546.637512 
	C2096.295166,638.226990 2096.295166,729.305298 2096.295166,821.010742 
	C2158.030029,821.010742 2219.880859,821.010742 2282.194092,821.010742 
	C2282.194092,829.253601 2282.194092,836.876770 2282.194092,845.000000 
z"/>
<path fill="#3D1C7A" opacity="1.000000" stroke="none" 
	d="
M278.999878,922.595459 
	C262.197418,922.595398 245.894974,922.595398 229.090271,922.595398 
	C229.090271,675.507568 229.090271,428.809448 229.090271,181.595718 
	C188.194260,181.595718 147.799026,181.595718 107.247864,181.595718 
	C107.247864,147.672836 107.247864,114.266525 107.247864,80.632553 
	C226.082794,80.632553 344.668121,80.632553 463.559418,80.632553 
	C463.559418,114.172783 463.559418,147.578705 463.559418,181.509384 
	C423.514038,181.509384 383.450623,181.509384 342.881989,181.509384 
	C342.881989,428.734924 342.881989,675.437378 342.881989,922.595581 
	C321.417358,922.595581 300.458618,922.595581 278.999878,922.595459 
z"/>
<path fill="#3D1C7A" opacity="1.000000" stroke="none" 
	d="
M1606.808228,919.721252 
	C1606.805786,639.820679 1606.805786,360.394226 1606.805786,80.685760 
	C1645.079346,80.685760 1683.013184,80.685760 1721.497803,80.685760 
	C1721.497803,327.292908 1721.497803,573.956238 1721.497803,821.027710 
	C1784.126343,821.027710 1846.207031,821.027710 1908.576172,821.027710 
	C1908.576172,854.987915 1908.576172,888.540161 1908.576172,922.596436 
	C1906.816895,922.596436 1905.194214,922.596497 1903.571533,922.596497 
	C1806.424805,922.596436 1709.277954,922.607178 1612.131348,922.513855 
	C1610.293579,922.512085 1607.088135,924.310913 1606.808228,919.721252 
z"/>
<path fill="#3D1C79" opacity="1.000000" stroke="none" 
	d="
M972.018433,496.000000 
	C972.018433,357.373566 972.018433,219.247131 972.018433,80.727943 
	C1010.254272,80.727943 1048.281372,80.727943 1086.590576,80.727943 
	C1086.590576,361.073547 1086.590576,641.413635 1086.590576,922.060486 
	C1048.556030,922.060486 1010.638977,922.060486 972.018433,922.060486 
	C972.018433,780.277222 972.018433,638.388611 972.018433,496.000000 
z"/>
<path fill="#FFFFFF" opacity="1.000000" stroke="none" 
	d="
M771.510498,440.484863 
	C770.694763,450.397308 770.828918,460.025360 768.971985,469.252655 
	C763.247620,497.697601 747.352844,512.704285 718.632446,516.810486 
	C708.806030,518.215332 698.714844,517.931396 688.739380,518.089294 
	C676.411438,518.284424 664.078125,518.135986 651.374146,518.135986 
	C651.374146,406.113037 651.374146,294.221100 651.374146,181.923401 
	C652.136963,181.827744 653.055481,181.607224 653.972595,181.613068 
	C673.135681,181.735260 692.311035,181.509613 711.457092,182.152954 
	C724.933472,182.605804 737.653870,186.101028 748.648682,194.696487 
	C758.851685,202.672943 765.311768,213.127304 767.674744,225.457703 
	C769.979553,237.484116 770.996765,249.842880 771.561646,262.102631 
	C774.293762,321.400360 774.212280,380.712402 771.510498,440.484863 
z"/>
<path fill="#FEFEFF" opacity="1.000000" stroke="none" 
	d="
M1420.298096,340.999268 
	C1419.574829,380.801025 1418.954590,420.105225 1418.055420,459.403076 
	C1417.787109,471.129669 1415.508911,482.556732 1410.017700,493.105042 
	C1401.041138,510.349304 1385.988647,519.207947 1367.466797,521.723572 
	C1355.168823,523.393738 1342.583496,523.077637 1330.120117,523.358276 
	C1319.657349,523.593872 1309.184814,523.406738 1298.456299,523.406738 
	C1298.456299,409.441833 1298.456299,295.891937 1298.456299,181.982315 
	C1299.224121,181.854614 1299.986694,181.613068 1300.747803,181.617950 
	C1320.235229,181.743057 1339.741699,181.408188 1359.204102,182.182037 
	C1377.302246,182.901657 1393.584351,188.797714 1405.010498,203.845505 
	C1414.538086,216.392944 1417.673462,231.203232 1418.108154,246.582352 
	C1418.993286,277.883575 1419.582886,309.193146 1420.298096,340.999268 
z"/>
</svg>